<?xml version="1.0" standalone="no"?>
<!DOCTYPE svg PUBLIC "-//W3C//DTD SVG 20010904//EN"
 "http://www.w3.org/TR/2001/REC-SVG-20010904/DTD/svg10.dtd">
<svg version="1.0" xmlns="http://www.w3.org/2000/svg"
 width="629.000000pt" height="391.000000pt" viewBox="0 0 629.000000 391.000000"
 preserveAspectRatio="xMidYMid meet">

<g transform="translate(0.000000,391.000000) scale(0.100000,-0.100000)"
fill="#000000" stroke="none">
<path d="M3053 3864 c-21 -21 -25 -32 -20 -65 3 -21 1 -42 -4 -45 -16 -9 -10
-52 9 -66 10 -7 21 -21 25 -32 4 -10 13 -16 22 -12 8 3 17 1 20 -4 13 -21 56
-9 94 25 70 63 123 41 182 -77 16 -32 31 -58 34 -58 2 0 16 5 31 12 23 11 28
10 41 -7 14 -18 15 -15 9 38 -4 40 -22 92 -55 161 -64 136 -101 164 -177 136
-19 -8 -30 -8 -38 0 -13 13 -53 13 -61 0 -4 -7 -14 -5 -28 5 -31 22 -54 19
-84 -11z"/>
<path d="M2300 3685 c0 -27 23 -65 44 -72 26 -9 67 -4 84 9 21 18 13 24 -23
20 -29 -3 -40 1 -64 27 -32 34 -41 38 -41 16z"/>
<path d="M3175 3550 c-4 -6 5 -10 19 -10 14 0 26 5 26 10 0 6 -9 10 -19 10
-11 0 -23 -4 -26 -10z"/>
<path d="M3109 3533 c-12 -15 -12 -16 4 -10 10 4 23 7 28 7 6 0 7 5 4 10 -9
15 -21 12 -36 -7z"/>
<path d="M3343 3310 c-29 -27 -53 -53 -53 -58 0 -5 9 -17 20 -27 16 -14 22
-15 34 -5 16 12 59 117 54 130 -2 5 -27 -14 -55 -40z"/>
<path d="M4258 3335 c-4 -4 -4 -13 -2 -20 3 -7 1 -16 -5 -20 -6 -3 -11 -10
-11 -15 0 -15 70 -41 113 -43 26 -1 39 -7 43 -19 3 -10 12 -18 21 -18 13 0 14
10 10 56 -3 30 -8 59 -12 62 -4 4 -23 8 -43 8 -21 1 -53 5 -72 8 -19 4 -38 5
-42 1z"/>
<path d="M2345 3223 c-44 -5 -55 -15 -55 -54 0 -28 30 -63 37 -43 2 6 10 19
17 29 11 15 17 16 49 6 23 -8 37 -19 38 -29 0 -9 10 3 23 28 12 25 20 48 17
51 -9 10 -81 17 -126 12z"/>
<path d="M4325 3220 c3 -5 8 -10 11 -10 2 0 4 5 4 10 0 6 -5 10 -11 10 -5 0
-7 -4 -4 -10z"/>
<path d="M4865 3132 c-41 -25 -92 -85 -117 -137 -20 -42 -21 -45 -4 -70 l18
-27 27 26 c18 17 39 26 62 27 18 0 43 4 54 9 18 7 14 10 -25 29 -25 11 -51 21
-57 21 -7 0 -13 4 -13 10 0 5 24 1 53 -11 83 -33 82 -33 110 1 36 43 33 106
-7 132 -20 14 -70 8 -101 -10z"/>
<path d="M5111 3124 c-28 -35 -26 -61 4 -107 14 -20 27 -37 29 -37 2 0 24 11
47 25 24 14 53 25 64 24 12 0 -2 -10 -32 -24 -29 -13 -53 -28 -53 -33 0 -12
35 -22 77 -22 37 0 93 -43 93 -71 0 -25 -28 -25 -54 0 -24 22 -116 40 -116 22
0 -6 13 -17 30 -26 71 -37 151 -139 150 -192 -1 -10 -14 10 -29 43 -16 34 -34
64 -40 68 -15 10 -32 -37 -36 -102 -2 -30 -6 -56 -9 -60 -12 -11 -6 96 8 141
15 50 11 59 -43 87 -26 13 -26 16 -3 -39 3 -9 1 -12 -6 -8 -6 4 -18 29 -28 55
-15 39 -74 112 -92 112 -9 0 6 -214 17 -252 30 -96 120 -182 224 -212 102 -29
132 -31 157 -6 21 21 22 29 17 94 -12 165 -166 480 -258 526 -54 28 -93 26
-118 -6z"/>
<path d="M4383 3120 c-25 -20 -32 -53 -9 -44 12 5 40 53 34 59 -2 2 -13 -5
-25 -15z"/>
<path d="M2415 3100 c3 -5 8 -10 11 -10 2 0 4 5 4 10 0 6 -5 10 -11 10 -5 0
-7 -4 -4 -10z"/>
<path d="M4440 3068 c0 -7 -12 -29 -27 -50 -20 -29 -29 -36 -35 -26 -9 12 -7
-69 7 -232 l5 -65 -34 70 c-43 87 -47 78 -5 -13 27 -60 32 -84 44 -240 7 -96
16 -176 19 -179 16 -16 18 46 7 212 -17 247 -16 383 2 426 16 39 31 109 22
109 -3 0 -5 -5 -5 -12z"/>
<path d="M4361 3024 c0 -11 3 -14 6 -6 3 7 2 16 -1 19 -3 4 -6 -2 -5 -13z"/>
<path d="M4491 2961 c0 -14 -8 -33 -18 -43 -15 -17 -15 -18 1 -18 21 0 29 20
23 57 -3 25 -4 25 -6 4z"/>
<path d="M4990 2955 c-13 -13 -31 -27 -41 -30 -9 -3 -20 -20 -23 -40 -4 -18
-15 -44 -26 -57 -24 -28 -26 -17 -4 17 21 32 8 32 -38 0 l-36 -24 14 -38 c7
-21 14 -60 14 -88 1 -27 5 -72 8 -100 l7 -50 46 43 c73 67 102 141 107 280 3
61 2 112 0 112 -2 0 -15 -11 -28 -25z"/>
<path d="M4540 2919 c1 -19 34 -108 51 -135 20 -32 83 -84 102 -84 5 0 -2 15
-15 33 -53 76 -138 190 -138 186z"/>
<path d="M4310 2900 c0 -5 5 -10 11 -10 5 0 7 5 4 10 -3 6 -8 10 -11 10 -2 0
-4 -4 -4 -10z"/>
<path d="M4838 2902 c-16 -3 -45 -58 -36 -67 6 -7 117 58 118 67 0 7 -44 7
-82 0z"/>
<path d="M4477 2853 c-9 -15 -49 -165 -45 -169 2 -2 17 35 32 82 15 47 26 88
23 90 -3 3 -7 2 -10 -3z"/>
<path d="M2406 2728 c-4 -40 -10 -84 -13 -96 -6 -24 -6 -24 26 -7 31 15 32 18
26 58 -8 50 -24 117 -29 117 -2 0 -7 -33 -10 -72z"/>
<path d="M2154 2696 c-3 -9 -12 -16 -18 -16 -13 0 -36 -41 -36 -64 0 -8 6 -16
14 -19 9 -4 20 12 35 50 12 31 19 58 16 61 -2 3 -7 -3 -11 -12z"/>
<path d="M3484 2619 c-53 -116 -156 -315 -225 -434 -32 -55 -56 -101 -54 -103
2 -2 105 27 229 64 226 68 226 68 226 96 0 16 -5 36 -11 46 -5 9 -36 106 -68
216 l-58 199 -39 -84z"/>
<path d="M2687 2629 c-14 -8 -16 -14 -6 -25 9 -11 9 -17 -1 -29 -7 -8 -8 -15
-3 -15 5 0 15 -11 21 -25 6 -14 17 -25 24 -25 20 0 41 -37 25 -44 -7 -3 1 -4
17 -3 41 3 42 30 3 94 -25 41 -36 51 -51 46 -15 -4 -18 -1 -13 16 3 11 4 21 4
21 -1 0 -10 -5 -20 -11z"/>
<path d="M1937 2578 c-10 -48 3 -73 52 -98 40 -20 139 -40 200 -40 54 0 33 8
-78 29 -140 27 -153 37 -164 121 -2 21 -4 19 -10 -12z"/>
<path d="M472 2324 c-42 -29 -28 -44 43 -44 70 0 82 11 47 43 -23 21 -61 22
-90 1z m56 -15 c-2 -6 -8 -10 -13 -10 -5 0 -11 4 -13 10 -2 6 4 11 13 11 9 0
15 -5 13 -11z"/>
<path d="M4384 2223 c-10 -99 -9 -470 1 -581 l7 -73 51 3 51 3 24 172 24 171
-25 34 c-34 44 -44 72 -73 203 -13 61 -27 120 -29 133 -11 46 -23 19 -31 -65z"/>
<path d="M4541 2224 c0 -49 4 -107 8 -129 5 -24 6 11 3 85 -5 146 -12 172 -11
44z"/>
<path d="M336 2272 c-3 -5 -58 -12 -123 -15 -74 -4 -121 -11 -129 -19 -16 -17
2 -1196 19 -1216 8 -11 92 -12 436 -6 255 4 431 11 439 17 9 7 12 66 12 233
l0 224 -27 0 -26 0 6 -194 6 -193 -400 -7 c-221 -4 -405 -4 -410 1 -4 4 -11
257 -15 561 l-7 552 102 0 c88 0 102 2 107 18 3 9 10 25 15 35 9 17 5 25 -5 9z"/>
<path d="M767 2263 c-48 -3 -58 -7 -53 -19 3 -9 6 -18 6 -20 0 -2 42 -4 93 -4
50 0 97 -4 103 -8 7 -4 14 -18 15 -32 3 -17 11 -26 27 -28 23 -3 23 -2 16 45
-3 26 -11 54 -16 61 -10 12 -56 13 -191 5z"/>
<path d="M482 2183 c-72 -3 -83 -6 -80 -21 2 -11 12 -17 31 -16 15 0 67 1 116
2 79 2 89 4 94 22 5 18 1 20 -36 18 -23 -1 -79 -4 -125 -5z"/>
<path d="M971 2114 c0 -11 3 -14 6 -6 3 7 2 16 -1 19 -3 4 -6 -2 -5 -13z"/>
<path d="M949 2081 c11 -7 12 -26 7 -87 -4 -44 -10 -89 -13 -101 -4 -18 -1
-23 16 -23 20 0 21 5 21 110 0 107 -1 110 -22 110 -17 0 -19 -3 -9 -9z"/>
<path d="M4590 1995 c13 -14 26 -25 28 -25 3 0 -5 11 -18 25 -13 14 -26 25
-28 25 -3 0 5 -11 18 -25z"/>
<path d="M4620 1956 c0 -2 8 -10 18 -17 15 -13 16 -12 3 4 -13 16 -21 21 -21
13z"/>
<path d="M4665 1900 c10 -11 20 -20 23 -20 3 0 -3 9 -13 20 -10 11 -20 20 -23
20 -3 0 3 -9 13 -20z"/>
<path d="M4690 1866 c0 -2 8 -10 18 -17 15 -13 16 -12 3 4 -13 16 -21 21 -21
13z"/>
<path d="M4720 1826 c0 -2 8 -10 18 -17 15 -13 16 -12 3 4 -13 16 -21 21 -21
13z"/>
<path d="M3905 1800 l-60 -5 63 -9 c66 -8 76 -7 64 9 -4 6 -33 8 -67 5z"/>
<path d="M940 1725 c0 -58 2 -65 20 -65 18 0 20 7 20 65 0 58 -2 65 -20 65
-18 0 -20 -7 -20 -65z"/>
<path d="M4795 1730 c40 -53 45 -63 34 -78 -11 -14 -11 -15 1 -5 11 10 18 9
34 -5 20 -16 20 -16 7 1 -12 15 -11 20 5 40 l19 22 -21 -18 c-22 -18 -22 -18
-69 42 -25 34 -48 61 -51 61 -3 0 16 -27 41 -60z"/>
<path d="M1259 1740 c-47 -25 -59 -40 -56 -75 1 -22 -3 -30 -18 -33 -40 -8
-48 -23 -24 -48 23 -25 18 -44 -11 -44 -30 0 -35 -21 -9 -41 26 -19 26 -19
-28 -34 -6 -2 -17 -13 -23 -24 -10 -19 -8 -21 19 -21 23 0 34 7 45 28 8 15 39
45 70 67 59 43 70 72 40 106 -17 19 -12 39 11 39 23 0 123 57 116 67 -10 16
-48 33 -73 33 -13 -1 -39 -9 -59 -20z"/>
<path d="M2514 1694 c-18 -14 -18 -14 6 -3 31 14 36 19 24 19 -6 0 -19 -7 -30
-16z"/>
<path d="M3618 1673 c7 -3 16 -2 19 1 4 3 -2 6 -13 5 -11 0 -14 -3 -6 -6z"/>
<path d="M1367 1651 c3 -12 11 -17 19 -14 8 3 14 6 12 7 -2 1 -11 7 -20 14
-14 11 -16 10 -11 -7z"/>
<path d="M3533 1663 c9 -2 25 -2 35 0 9 3 1 5 -18 5 -19 0 -27 -2 -17 -5z"/>
<path d="M1330 1653 c0 -6 8 -17 18 -24 16 -13 16 -13 2 6 -8 11 -16 22 -17
24 -2 2 -3 0 -3 -6z"/>
<path d="M3033 1653 c9 -2 25 -2 35 0 9 3 1 5 -18 5 -19 0 -27 -2 -17 -5z"/>
<path d="M2958 1643 c7 -3 16 -2 19 1 4 3 -2 6 -13 5 -11 0 -14 -3 -6 -6z"/>
<path d="M1411 1640 c-1 -3 -5 -16 -7 -30 -7 -38 -20 -46 -54 -33 -18 7 -30 7
-30 2 0 -5 7 -12 15 -15 8 -4 15 -11 15 -18 0 -6 11 -19 24 -28 20 -15 26 -15
42 -3 18 13 17 14 -11 25 l-30 11 23 18 c18 13 23 25 19 47 -2 16 -5 27 -6 24z"/>
<path d="M2482 1600 c0 -19 2 -27 5 -17 2 9 2 25 0 35 -3 9 -5 1 -5 -18z"/>
<path d="M2869 1603 c-13 -16 -12 -17 4 -4 16 13 21 21 13 21 -2 0 -10 -8 -17
-17z"/>
<path d="M2841 1534 c0 -11 3 -14 6 -6 3 7 2 16 -1 19 -3 4 -6 -2 -5 -13z"/>
<path d="M1600 1505 c-14 -16 -10 -18 14 -9 9 3 16 10 16 15 0 14 -16 11 -30
-6z"/>
<path d="M1400 1484 c0 -17 17 -36 24 -26 3 5 -1 15 -9 22 -8 7 -15 9 -15 4z"/>
<path d="M1222 1460 c0 -14 2 -19 5 -12 2 6 2 18 0 25 -3 6 -5 1 -5 -13z"/>
<path d="M1460 1469 c0 -6 7 -26 16 -45 l16 -34 17 32 c9 18 27 38 41 45 23
12 20 13 -32 13 -36 0 -58 -4 -58 -11z"/>
<path d="M1650 1374 l-33 -107 -76 -35 c-42 -20 -78 -37 -79 -38 -2 -1 -1 -12
3 -23 6 -21 10 -21 396 -21 l389 0 -2 165 -3 165 -281 0 -281 0 -33 -106z"/>
<path d="M2833 1440 c0 -25 2 -35 4 -22 2 12 2 32 0 45 -2 12 -4 2 -4 -23z"/>
<path d="M3939 1464 c-65 -78 -368 -134 -663 -121 l-129 6 -28 -29 c-26 -26
-29 -35 -29 -99 l0 -71 545 0 545 0 0 -360 0 -360 -570 0 c-373 0 -570 -3
-570 -10 0 -7 197 -10 570 -10 l570 0 0 -174 c0 -167 -1 -174 -21 -179 -11 -3
-23 -15 -26 -26 l-5 -21 -642 2 c-352 1 -593 4 -533 5 122 4 116 -3 97 109 -6
32 -13 74 -16 92 -3 17 -8 32 -13 32 -4 0 -25 -31 -46 -69 l-37 -69 -82 35
c-151 64 -201 87 -212 95 -10 7 -43 -18 -33 -26 2 -1 34 -24 72 -50 37 -26 67
-50 67 -52 0 -12 -24 1 -85 47 -66 49 -70 50 -97 37 l-29 -13 55 -40 c50 -36
67 -55 50 -55 -3 0 -32 20 -63 44 -55 42 -60 44 -93 34 -30 -9 -43 -6 -110 23
l-76 32 -5 171 c-4 147 -30 509 -41 571 -2 11 -4 -105 -5 -257 l-1 -278 -365
0 -364 0 -5 32 c-3 18 -8 67 -11 108 -8 93 -34 299 -41 323 -4 13 -17 17 -58
17 l-53 0 4 83 c2 45 5 96 6 114 4 41 -16 50 -50 23 -47 -36 -68 -25 -118 60
-22 39 -25 41 -19 15 15 -68 56 -135 83 -135 5 0 24 12 42 27 l32 27 -7 -74
c-13 -144 -9 -136 -78 -144 -34 -3 -81 -6 -104 -6 l-44 0 0 -102 c0 -100 13
-356 26 -509 l6 -76 59 -18 c55 -17 59 -20 61 -49 2 -47 15 98 17 187 l1 77
49 0 c56 0 51 10 72 -137 6 -46 16 -83 22 -83 6 0 35 8 64 18 l54 17 -7 93 -6
92 366 0 367 0 -2 -101 -2 -100 63 -45 c34 -25 59 -48 56 -51 -3 -3 -36 18
-74 46 -65 48 -71 50 -101 40 l-32 -11 61 -45 c81 -61 69 -68 -15 -9 l-65 47
-61 -32 c-70 -38 -99 -70 -99 -110 l0 -29 -349 2 c-341 3 -350 3 -357 23 -6
19 -7 19 -11 -2 l-4 -23 -632 -3 c-348 -1 724 -3 2382 -5 1658 -1 3012 0 3009
3 -3 3 -156 5 -340 5 l-335 0 -11 25 c-7 14 -19 28 -27 31 -13 5 -15 74 -15
545 l0 539 25 0 c21 0 25 5 25 30 0 23 -4 30 -20 30 -18 0 -20 7 -20 68 0 88
-28 148 -85 179 -37 21 -53 23 -208 23 -97 0 -176 -4 -188 -10 -13 -7 -19 -7
-19 0 0 7 -138 10 -424 10 -374 0 -425 -2 -437 -16z m1308 -671 l-2 -358 -507
-3 -508 -2 0 360 0 360 510 0 509 0 -2 -357z m-3937 45 c1 -2 13 -92 29 -201
30 -216 31 -211 -31 -205 -31 3 -33 5 -31 38 1 19 5 110 9 203 3 92 10 167 15
167 5 0 9 -1 9 -2z m3939 -596 l0 -168 -30 -11 c-19 -8 -29 -18 -29 -32 0 -21
0 -21 -458 -21 l-459 0 -11 25 c-6 14 -16 25 -22 25 -6 0 -10 63 -10 175 l0
175 510 0 510 0 -1 -168z"/>
<path d="M2474 1355 c0 -66 1 -92 3 -57 2 34 2 88 0 120 -2 31 -3 3 -3 -63z"/>
<path d="M1244 1408 c3 -23 75 -170 76 -155 0 4 -16 39 -35 77 -19 38 -32 76
-29 85 3 8 2 15 -4 15 -6 0 -9 -10 -8 -22z"/>
<path d="M1403 1385 c0 -22 2 -30 4 -17 2 12 2 30 0 40 -3 9 -5 -1 -4 -23z"/>
<path d="M1391 1324 c0 -11 3 -14 6 -6 3 7 2 16 -1 19 -3 4 -6 -2 -5 -13z"/>
<path d="M2833 1000 c0 -41 2 -58 4 -37 2 20 2 54 0 75 -2 20 -4 3 -4 -38z"/>
<path d="M2483 980 c0 -47 2 -66 4 -42 2 23 2 61 0 85 -2 23 -4 4 -4 -43z"/>
<path d="M2843 775 c0 -27 2 -38 4 -22 2 15 2 37 0 50 -2 12 -4 0 -4 -28z"/>
<path d="M2493 740 c0 -36 2 -50 4 -32 2 17 2 47 0 65 -2 17 -4 3 -4 -33z"/>
<path d="M2853 615 c0 -22 2 -30 4 -17 2 12 2 30 0 40 -3 9 -5 -1 -4 -23z"/>
<path d="M2502 563 c-1 -17 -8 -34 -14 -36 -7 -3 28 -5 77 -4 86 1 86 1 18 4
l-72 4 -4 32 -4 32 -1 -32z"/>
<path d="M2888 523 c28 -2 76 -2 105 0 28 2 5 3 -53 3 -58 0 -81 -1 -52 -3z"/>
</g>
</svg>
