<svg height="512" viewBox="0 0 46 60" width="512" xmlns="http://www.w3.org/2000/svg"><g id="Page-1" fill="none" fill-rule="evenodd"><g id="013---Beard-Man"><g fill-rule="nonzero"><path id="Shape" d="m30.44 46.84c-1.9759358 2.860442-4.5058999 5.2951924-7.44 7.16-2.9363869-1.8618968-5.4668852-4.2971612-7.44-7.16 1.87-.65 2.56-2.42 2.77-4.16 1.5432787.2520896 3.1067598.3592232 4.67.32 1.5632402.0392232 3.1267213-.0679104 4.67-.32.21 1.74.9 3.5 2.77 4.16z" fill="#ffe0b2"/><path id="Shape" d="m27.67 42.68c-.9758082.1726108-1.9633123.2708932-2.954.294.0873692 1.7058407 1.1470245 3.2097421 2.724 3.866-1.6424611 2.3519649-3.6473349 4.4287307-5.94 6.153.479.351.976.692 1.5 1.007 2.9341001-1.8648076 5.4640642-4.299558 7.44-7.16-1.87-.66-2.56-2.42-2.77-4.16z" fill="#dfc49c"/><path id="Shape" d="m43.41 57.42c-2.75.58-9.08 1.58-20.41 1.58s-17.66-1-20.41-1.58c-.98582864-.2004328-1.66513766-1.1076113-1.58-2.11.89-9.1 9.22-7.36 13.96-8.31.2010851-.0354508.3985549-.0890019.59-.16 1.9731148 2.8628388 4.5036131 5.2981032 7.44 7.16 2.9341001-1.8648076 5.4640642-4.299558 7.44-7.16.1928909.0663906.389995.1198426.59.16 4.74.95 13.07-.79 13.96 8.31.0851377 1.0023887-.5941714 1.9095672-1.58 2.11z" fill="#3f51b5"/><path id="Shape" d="m44.99 55.31c-.89-9.1-9.22-7.36-13.96-8.31-.200005-.0401574-.3971091-.0936094-.59-.16-.088.126-.2.282-.311.431 4.764.406 11.092.172 11.861 8.039.0851377 1.0023887-.5941714 1.9095672-1.58 2.11-2.625.554-8.524 1.488-18.91 1.572.494 0 .986.008 1.5.008 11.33 0 17.66-1 20.41-1.58.9858286-.2004328 1.6651377-1.1076113 1.58-2.11z" fill="#283593"/><path id="Shape" d="m9.05 29.98c-2.83-.16-4.65-3.57-3.86-6.38.09380939-.6311401.49349582-1.1751239 1.06776246-1.453253.57426664-.2781292 1.24888287-.2544522 1.80223754.063253.18445722 2.2793124.49829651 4.5463005.94 6.79 0 0 0 .37.05.98z" fill="#dfc49c"/><path id="Shape" d="m36.95 29.98c.05-.61.05-.98.05-.98.4417035-2.2436995.7555428-4.5106876.94-6.79.5533547-.3177052 1.2279709-.3413822 1.8022375-.063253.5742667.2781291.9739531.8221129 1.0677625 1.453253.79 2.81-1.03 6.22-3.86 6.38z" fill="#dfc49c"/><path id="Shape" d="m38 17v1.33c-1.57-.55-2.53-1.12-4-3.33-.8742143-1.487023-1.9893954-2.8184816-3.3-3.94 1.2952237-.2441667 2.4554826-.955982 3.26-2 2.4782822 1.8993813 3.9635825 4.8185112 4.04 7.94z" fill="#6d4122"/><path id="Shape" d="m38 18.33c0 2.756.016 2.988-.05 3.65-.1722589 2.357283-.4895261 4.7017204-.95 7.02-1.4.467-3.627 1.811-4.08 3.17-.3858461.765926-1.0810479 1.330095-1.91 1.55-3.517.923-4.223-.72-8.01-.72-3.769 0-4.483 1.645-8.01.72-.8289521-.219905-1.5241539-.784074-1.91-1.55-.454-1.362-2.67-2.7-4.08-3.17-.45723923-2.318818-.77447963-4.6630576-.95-7.02-.072-.717-.05-1.061-.05-3.65 1.57-.55 2.53-1.12 4-3.33.8742143-1.487023 1.9893954-2.8184816 3.3-3.94 5.0567955 1.2536252 10.3432045 1.2536252 15.4 0 1.3106046 1.1215184 2.4257857 2.452977 3.3 3.94 1.47 2.21 2.43 2.78 4 3.33z" fill="#ffe0b2"/><path id="Shape" d="m34 15c-.8742143-1.487023-1.9893954-2.8184816-3.3-3.94-.7771194.2260729-1.5676772.4030884-2.367.53 1.0100419 1.0365767 1.9043039 2.1799713 2.667 3.41 1.47 2.21 2.43 2.78 4 3.33v2.67c0 .24-.01.58-.05.98 0 .07-.01.15-.01.23-.1844572 2.2793124-.4982965 4.5463005-.94 6.79 0 0-3 1-4 3-.030732.054663-.0574685.111478-.08.17-.3858461.765926-1.0810479 1.330095-1.91 1.55-.148.039-.315.064-.473.1.4787876.1178885.9699154.1783143 1.463.18.6791202-.0082855 1.3544709-.1023642 2.01-.28.8289521-.219905 1.5241539-.784074 1.91-1.55.0225315-.058522.049268-.115337.08-.17 1-2 4-3 4-3 .4417035-2.2436995.7555428-4.5106876.94-6.79 0-.08.01-.16.01-.23.04-.4.05-.74.05-.98v-2.67c-1.57-.55-2.53-1.12-4-3.33z" fill="#dfc49c"/><path id="Shape" d="m15.3 11.06c-1.3106046 1.1215184-2.4257857 2.452977-3.3 3.94-1.47 2.21-2.43 2.78-4 3.33v-1.33c.07641751-3.1214888 1.56171783-6.0406187 4.04-7.94.8045174 1.044018 1.9647763 1.7558333 3.26 2z" fill="#6d4122"/><path id="Shape" d="m35 6s-1 0-1 2v1c-2 3.992-20 3.992-22 0-.8100179-1.91798387-.8100179-4.08201613 0-6 0 0 1 2 2 2 0 0 2-4 9-4s10 2 10 2-2 1-2 2c0 0 3 0 4 1z" fill="#91562d"/><path id="Shape" d="m31 5c0-1 2-2 2-2-2.35-1.567-8.027-2.2-11.276-1.953 5.764.29 8.276 1.953 8.276 1.953s-2 1-2 2c0 0 3 0 4 1 0 0-1 0-1 2v1c-1.144 2.282-6.944 2.864-9.5 2.966 3.1.125 11.113-.2 12.5-2.966v-1c0-2 1-2 1-2-1-1-4-1-4-1z" fill="#6d4122"/><circle id="Oval" cx="16" cy="25" fill="#f5f5f5" r="2"/><circle id="Oval" cx="30" cy="25" fill="#f5f5f5" r="2"/><path id="Shape" d="m37 29s0 .37-.05.98c-.13 1.86-.69 6.01-2.95 9.02-2.693 3.591-6.822 4-11 4-4.235 0-8.316-.421-11-4-2.26-3.01-2.82-7.16-2.95-9.02-.05-.61-.05-.98-.05-.98 1.4.467 3.627 1.811 4.08 3.17.3858461.765926 1.0810479 1.330095 1.91 1.55 3.517.923 4.223-.72 8.01-.72 3.769 0 4.483 1.645 8.01.72.8289521-.219905 1.5241539-.784074 1.91-1.55.454-1.362 2.67-2.7 4.08-3.17z" fill="#91562d"/><path id="Shape" d="m33.868 30.858c-.2496745 2.9133839-1.236646 5.7153094-2.868 8.142-1.5548755 1.9989119-3.8235823 3.3178441-6.33 3.68-1.0470674.1836959-2.1070613.2840108-3.17.3.533.02 1.046.02 1.5.02 1.5632402.0392232 3.1267213-.0679104 4.67-.32 2.5064177-.3621559 4.7751245-1.6810881 6.33-3.68 2.26-3.01 2.82-7.16 2.95-9.02.05-.61.05-.98.05-.98-1.1542628.4111082-2.2178835 1.0420812-3.132 1.858z" fill="#6d4122"/></g><path id="Shape" d="m21 36h4" stroke="#000" stroke-linecap="round" stroke-linejoin="round" stroke-width="2"/><g fill="#000" fill-rule="nonzero"><path id="Shape" d="m14.773 46.02c-1.0465632.1775916-2.1027605.2927949-3.163.345-4.561.33-10.806.782-11.595 8.846-.1397868 1.51144.88071034 2.8857497 2.368 3.189 2.83306006.5616513 5.69822643.9470577 8.579 1.154.013 0 .024.008.038.008h.017c3.165.253 7.121.438 11.983.438s8.818-.185 11.983-.443h.017c.006 0 .025-.007.038-.008 2.8815938-.2059514 5.7477167-.5896819 8.582-1.149 1.4844327-.3044216 2.5028575-1.6759579 2.365-3.185-.785-8.068-7.034-8.515-11.595-8.85-1.0612817-.0521855-2.1184982-.1677246-3.166-.346-.484-.1-1.845-.372-2.4-2.563 2.3825746-.5447111 4.497864-1.9095967 5.976-3.856 1.7605039-2.6063505 2.8214546-5.6215028 3.081-8.756 1.1690149-.3142953 2.1887487-1.0328569 2.878-2.028 1.1404024-1.5854367 1.5123316-3.5976694 1.014-5.486-.18751-.8722792-.7417562-1.6214772-1.521-2.056-.3889856-.1919741-.818295-.2879857-1.252-.28v-3.994c-.0863294-3.2258201-1.5407445-6.2626388-4-8.352v-.648c-.03427-.35025899.0308884-.70308456.188-1.018.3635433-.06971013.6588398-.33454151.767568-.68837962.1087283-.35383812.0130999-.73879383-.248568-1.00062038-.7799062-.63425875-1.728036-1.0269958-2.728-1.13.151975-.0976261.3088468-.1874102.47-.269.3184315-.1597761.5278095-.47690076.5496481-.83249901.0218386-.35559826-.1471607-.69596046-.4436481-.89350099-.133-.088-3.335-2.168-10.555-2.168-5.567 0-8.26 2.386-9.323 3.706-.3079845-.35096464-.5710128-.73895668-.783-1.155-.1773334-.33806322-.5272498-.55016877-.909-.551-.3833588.00543527-.7298615.22957432-.892.577-.8533318 1.96359443-.9400298 4.1756414-.243 6.2-2.37144899 2.0860115-3.76655766 5.0657462-3.85 8.223v3.994c-.43370505-.0079857-.86301439.0880259-1.252.28-.77901991.4335967-1.333047 1.1822623-1.52 2.054-.49939338 1.8887975-.12779543 3.901956 1.013 5.488.6892513.9951431 1.70898515 1.7137047 2.878 2.028.25954544 3.1344972 1.32049615 6.1496495 3.081 8.756 1.4771332 1.9456221 3.5908829 3.3104277 5.972 3.856-.551 2.191-1.913 2.467-2.399 2.564zm29.227 9.389c.0376895.4952628-.3029572.9396968-.791 1.032-2.3789135.4751009-4.7827313.8156417-7.2 1.02v-1.461c0-.5522847-.4477153-1-1-1s-1 .4477153-1 1v1.627c-2.969.22-6.6.373-11 .373s-8.032-.153-11-.373v-1.627c0-.5522847-.4477153-1-1-1s-1 .4477153-1 1v1.461c-2.41725414-.2039877-4.82107403-.544195-7.2-1.019-.48995647-.0919124-.83214036-.5379582-.794-1.035.625-6.387 5.264-6.722 9.749-7.047 1.1398616-.0574513 2.275241-.1833448 3.4-.377 1.97951 2.7412511 4.4689357 5.0751725 7.332 6.874.3174279.1912152.7145721.1912152 1.032 0 2.8630643-1.7988275 5.35249-4.1327489 7.332-6.874 1.1247825.1934885 2.2601519.3193809 3.4.377 4.471.325 9.11.66 9.74 7.049zm-34.017-27.1c-.44322403-2.1227292-.75481812-4.2708248-.933-6.432-.041-.356-.05-.661-.05-.877v-1.981c1.6269096-.6956588 2.9751275-1.9143689 3.831-3.463.7590365-1.2384601 1.6656741-2.380152 2.7-3.4 2.4450636.5898066 4.9539754.8733146 7.469.844 2.5150246.0293146 5.0239364-.2541934 7.469-.844 1.0348428 1.0193836 1.941533 2.1611416 2.7 3.4.8563581 1.548246 2.2044246 2.7668193 3.831 3.463v1.981c0 .216-.009.521-.047.908-.1786945 2.1504182-.489616 4.2877949-.931 6.4-1.6223333.6220462-2.9965807 1.7578285-3.913 3.234l-.087.171c-.2517716.5108131-.7117868.8880839-1.262 1.035-.573831.1572169-1.1651078.241877-1.76.252-.7104556-.0222942-1.4134331-.1521006-2.085-.385-2.5455975-.819977-5.2844025-.819977-7.83 0-.6715669.2328994-1.3745444.3627058-2.085.385-.5947232-.0088185-1.185997-.0921344-1.76-.248-.5516058-.1475479-1.0124789-.5263827-1.264-1.039l-.081-.16c-.9169065-1.4789194-2.292574-2.6171728-3.917-3.241zm29.37-5.254c.2624484.1993929.4408055.4897583.5.814.3385902 1.3001303.0785582 2.683545-.709 3.772-.3005476.4219718-.69311.7700803-1.148 1.018.3859082-1.8697496.676947-3.7578309.872-5.657.1620957-.0262781.3283069-.0068868.48.056zm-2.353-6.268c-.8863986-.610583-1.6256377-1.4109699-2.164-2.343-.6816903-1.0622382-1.4418068-2.0720499-2.274-3.021.5447671-.2445798 1.0521409-.5650973 1.507-.952 1.7536349 1.6495238 2.8034919 3.9118565 2.931 6.316zm-24.588-11.519c.4173368.43657316.9849859.69823508 1.588.732.3742772-.0033643.7163287-.21243849.89-.544.074-.142 1.885-3.456 8.11-3.456 2.7050517-.06553518 5.4014425.33116197 7.973 1.173-.5632247.44807974-.9155173 1.10957871-.973 1.827 0 .55228475.4477153 1 1 1 .7744165.00637194 1.5457601.09826243 2.3.274-.2170784.5487365-.3191863 1.1361978-.3 1.726v.722c-.847 1.134-4.5 2.278-10 2.278-5.769 0-9.512-1.261-10.092-2.418-.4224673-1.05061098-.5923595-2.18573721-.496-3.314zm-.476 5.2c.4548591.3869027.9622329.7074202 1.507.952-.8324879.9499081-1.5932486 1.9603561-2.276 3.023-.5376736.9313549-1.27626286 1.7310947-2.162 2.341.12826713-2.4030879 1.1780628-4.664214 2.931-6.313zm-5.075 17.176c-.78781702-1.0891186-1.04750663-2.4733962-.708-3.774.05920011-.3236922.23760772-.6134261.5-.812.15346725-.0629185.32156585-.081288.485-.053.19547823 1.8991145.48651381 3.7871744.872 5.657-.45525268-.2477959-.84816696-.5959132-1.149-1.018zm5.939 10.756c-1.543106-2.3301408-2.4690574-5.0140578-2.691-7.8.8258806.4184686 1.5185431 1.0591814 2 1.85l.083.163c.5112171 1.0256488 1.4404131 1.7805977 2.549 2.071.7367851.1995695 1.495734.3057349 2.259.316.898971-.0211108 1.7896321-.1775327 2.642-.464 2.1816317-.7146534 4.5343683-.7146534 6.716 0 .8523679.2864673 1.743029.4428892 2.642.464.7630966-.0089602 1.5220426-.1137814 2.259-.312 1.1072579-.2896501 2.0356401-1.0430722 2.547-2.067l.089-.174c.4828158-.787198 1.1753656-1.4243438 2-1.84-.2247359 2.783799-1.1519889 5.4650912-2.695 7.793-1.3866036 1.7798994-3.4051982 2.9576815-5.637 3.289-.0043169-.0005335-.0086831-.0005335-.013 0-.012 0-.021.009-.033.011-1.4931006.2399032-3.0052871.3403363-4.517.3-1.5117129.0403363-3.0238994-.0600968-4.517-.3-.012 0-.021-.01-.033-.011-.0046535-.0004963-.0093465-.0004963-.014 0-2.2313017-.3319569-4.2493616-1.5096359-5.636-3.289zm10.2 5.6c1.2888828.0206756 2.5777841-.0401122 3.859-.182.2415565 1.3467245.9853217 2.5515456 2.081 3.371-1.6549011 2.1929207-3.6621528 4.0960927-5.94 5.632-2.2780794-1.5356178-4.2853756-3.438832-5.94-5.632 1.0956783-.8194544 1.8394435-2.0242755 2.081-3.371 1.2812159.1418878 2.5701172.2026756 3.859.182z"/><path id="Shape" d="m22 31h2c.5522847 0 1-.4477153 1-1s-.4477153-1-1-1h-2c-.5522847 0-1 .4477153-1 1s.4477153 1 1 1z"/><path id="Shape" d="m16 28c1.6568542 0 3-1.3431458 3-3s-1.3431458-3-3-3-3 1.3431458-3 3 1.3431458 3 3 3zm0-4c.5522847 0 1 .4477153 1 1s-.4477153 1-1 1-1-.4477153-1-1 .4477153-1 1-1z"/><path id="Shape" d="m30 22c-1.6568542 0-3 1.3431458-3 3s1.3431458 3 3 3 3-1.3431458 3-3-1.3431458-3-3-3zm0 4c-.5522847 0-1-.4477153-1-1s.4477153-1 1-1 1 .4477153 1 1-.4477153 1-1 1z"/><path id="Shape" d="m18.553 19.9c.4942949.2468713 1.0951287.0462949 1.342-.448s.0462949-1.0951287-.448-1.342c-2.6964622-1.3637799-5.9587673-.8884772-8.154 1.188-.3406391.396035-.3190611.9875318.0495292 1.3576939.3685902.3701621.9599898.3942569 1.3574708.0553061 1.5880307-1.4706802 3.9249171-1.7944825 5.853-.811z"/><path id="Shape" d="m27.447 19.9c1.9277191-.9814484 4.263012-.6560486 5.849.815.3931693.378225 1.016933.3715217 1.4018833-.0150654.3849502-.3865872.3890067-1.0103737.0091167-1.4019346-2.1948253-2.0773179-5.4576883-2.552702-8.154-1.188-.4942949.2468713-.6948713.8477051-.448 1.342s.8477051.6948713 1.342.448z"/><path id="Shape" d="m21 37h4c.5522847 0 1-.4477153 1-1s-.4477153-1-1-1h-4c-.5522847 0-1 .4477153-1 1s.4477153 1 1 1z"/></g></g></g></svg>