<svg id="Layer_1" enable-background="new 0 0 511.992 511.992" height="512" viewBox="0 0 511.992 511.992" width="512" xmlns="http://www.w3.org/2000/svg"><path d="m440.936 462.078c-79.095 9.393-243.731 23.567-319.868-9.514-8.004-3.478-14.136-10.202-16.813-18.508-14.876-46.14-62.198-215.563-.669-339.805 1.867-3.77 2.399-8.054 1.473-12.157-1.738-7.699-3.745-21.097.271-30.925 8.981-21.979 75.498-73.068 125.827-19.554 13.951 14.833 13.863 39.676 11.025 58.842-2.05 13.845-17.042 21.622-29.52 15.282l-10.474-5.322c-6.889-3.5-15.221-2.372-20.925 2.841-6.294 5.752-15.569 12.292-26.063 13.426-16.644 30.011 28.524 151.158 29.409 212.405.094 6.475 7.693 9.855 12.53 5.551 15.743-14.008 43.423-31.178 81.337-26.345 23.155 2.951 38.988 16.924 48.891 29.758 7.38 9.565 21.749 9.727 29.465.43 19.665-23.692 56.49-56.649 105.755-50.427 8.257 1.043 14.566 7.89 14.979 16.202l5.369 108.146c1.244 25.019-17.107 46.718-41.999 49.674z" fill="#ffd3be"/><path d="m482.138 396.306c-3.841 19.928-21.291 44.783-42.3 47.278-9.412 1.118-27.125-5.895-38.666-4.73-91.277 9.217-231.786 16.377-292.835-20.279 0 0-32.478-87.652-35.302-188.866-2.603 89.546 21.396 173.871 31.224 204.357 2.677 8.305 8.807 15.021 16.81 18.498 76.137 33.081 240.772 18.907 319.868 9.514 24.891-2.956 43.243-24.655 42.001-49.675z" fill="#ffaea7"/><path d="m123.541 109.599c1.867-3.77 2.399-8.053 1.473-12.157-1.738-7.699-3.745-21.097.271-30.925 7.796-19.079 58.945-60.077 105.227-35.565-50.251-52.402-116.239-1.669-125.182 20.216-4.016 9.828-2.009 23.226-.271 30.925.926 4.104.394 8.387-1.473 12.157-61.526 124.238-14.208 293.659.669 339.805 2.642 8.195 8.618 14.92 16.507 18.368 1.671.73 3.384 1.438 5.137 2.123-12.401-36.983-66.469-215.49-2.358-344.947z" fill="#ffaea7"/><path d="m324.092 503.992h-260.892c-18.89 0-34.203-15.303-34.203-34.181v-242.339c0-18.878 15.313-34.181 34.203-34.181h260.892c18.89 0 34.203 15.303 34.203 34.181v242.339c0 18.878-15.313 34.181-34.203 34.181z" fill="#4ac9ff"/><path d="m358.295 336.749c-.493.58-.988 1.163-1.461 1.734-7.709 9.287-22.049 9.199-29.413-.363-9.9-12.853-25.748-26.869-48.943-29.825-37.92-4.834-65.604 12.343-81.345 26.352-4.824 4.294-12.431.942-12.522-5.515-.495-35.075-15.533-89.822-25.163-135.84h-83.804c-11.946 102.232 17.462 206.182 28.615 240.775 2.665 8.266 8.744 14.986 16.707 18.453 54.788 23.861 155.539 23.187 237.2 17.432.201-.219.129 6.103.129-133.203z" fill="#e6795f"/><path d="m135.909 433.771c-7.962-3.468-14.041-10.186-16.706-18.451-10.471-32.479-37.033-126.097-30.354-222.029h-13.205c-11.946 102.232 17.462 206.182 28.615 240.775 2.665 8.266 8.744 14.986 16.707 18.453 54.788 23.861 155.539 23.188 237.2 17.432.194-.21.13 1.214.13-17.776-78.712 4.776-170.868 4.033-222.387-18.404z" fill="#cb5d5f"/><path d="m358.295 390.997h-143.69c-.234-11.378-9.519-20.533-20.96-20.533-19.197 0-28.28 23.745-13.994 36.56-14.278 12.809-5.218 36.56 13.994 36.56 11.441 0 20.726-9.155 20.96-20.533h143.69z" fill="#d4deff"/><path d="m123.455 390.106c4.05 6.652 17.803 12.971 24.847-3.987 4.714-11.348 11.377-22.863.19-37.477-27.148-35.465-14.387-155.351-14.387-155.351h-34.805s-2.506 153.02 24.155 196.815z" fill="#d4deff"/><ellipse cx="137.665" cy="71.419" fill="#ffaea7" rx="9.887" ry="6.179" transform="matrix(.273 -.962 .962 .273 31.351 184.333)"/><ellipse cx="440.519" cy="424.917" fill="#ffaea7" rx="11.589" ry="8.408"/><g fill="#231f20"><path d="m490.927 412.007-5.369-108.146c-.607-12.227-9.845-22.212-21.967-23.742-42.11-5.324-75.589 16.071-97.296 36.579v-89.225c0-23.259-18.932-42.181-42.203-42.181h-158.133c-3.509-17.257-9.063-47.797-5.068-61.486 10.709-2.526 19.764-9.153 25.77-14.642 12.056-11.017 22.652 14.362 46.141 4.643 8.789-3.637 15.729-11.609 17.294-22.178 4.315-29.14-.218-51.787-13.111-65.495-25.203-26.799-52.989-28.251-71.858-24.75-33.508 6.216-61.005 31.594-67.203 46.76-4.648 11.376-2.929 25.699-.669 35.712.515 2.282.217 4.713-.838 6.846-14.758 29.8-23.415 62.054-27.83 94.591h-5.387c-23.271 0-42.203 18.922-42.203 42.181v242.339c0 23.259 18.932 42.182 42.203 42.182h260.892c20.666 0 37.898-14.928 41.5-34.559 28.989-2.169 55.382-4.929 76.289-7.412 28.947-3.441 50.491-28.923 49.046-58.017zm-380.172-314.207c2.681-5.412 3.429-11.616 2.108-17.469-2.444-10.826-2.491-20.353-.127-26.137 7.153-17.506 66.962-65.619 112.594-17.101 11.902 12.655 11.43 35.366 8.939 52.19-1.252 8.459-10.379 13.185-17.982 9.322l-10.474-5.322c-9.8-4.98-21.834-3.346-29.945 4.068-16.957 15.493-23.551 8.036-27.663 15.451-7.592 13.69-5.176 38.86 1.45 72.487-15.112 0-49.741 0-64.967 0 4.604-32.475 13.303-61.715 26.067-87.489zm-3.512 103.491h18.097c-3.165 38.409-6.643 121.586 16.8 152.214 7.015 9.163 4.861 15.357.106 26.41-1.277 2.972-3.319 8.815-6.541 9.063-2.721.224-5.751-3.032-5.417-3.032-20.827-34.214-23.133-144.347-23.045-184.655zm216.849 294.701h-260.892c-14.448 0-26.203-11.745-26.203-26.182v-242.338c0-14.437 11.755-26.181 26.203-26.181h3.559c-9.86 104.351 19.815 193.03 29.887 235.231 5.716 17.726 21.335 23.449 21.235 23.378 59.27 25.743 166.678 22.809 230.89 18.701-3.624 10.125-13.317 17.391-24.679 17.391zm26.203-80.941h-135.689c-4.354 0-7.909 3.482-7.999 7.835-.144 7.001-5.958 12.697-12.961 12.697-11.882 0-17.499-14.668-8.652-22.604 3.539-3.175 3.545-8.73 0-11.91-8.852-7.94-3.221-22.605 8.652-22.605 7.002 0 12.817 5.696 12.961 12.698.09 4.353 3.645 7.835 7.999 7.835h135.689zm0-81.265c-4.519 4.919-12.408 4.812-16.537-.549-10.343-13.429-22.667-22.988-36.63-28.413-4.12-1.603-8.755.441-10.354 4.56-1.6 4.119.441 8.755 4.56 10.354 11.204 4.353 21.212 12.179 29.749 23.263 7.063 9.17 18.82 12.392 29.212 9.135v30.86h-128.953c-3.653-11.844-14.769-20.533-27.696-20.533-22.896 0-36.681 25.391-24.4 44.561-12.245 19.113 1.452 44.56 24.4 44.56 12.927 0 24.042-8.689 27.696-20.532h128.953v31.362c-60.295 3.923-150.546 6.248-208.211-10.807-16.8-4.969-26.514-8.544-30.211-19.995-22.138-68.416-36.278-156.332-29.042-230.32h8.412c-.093 43.977 2.208 154.915 25.378 192.974 3.87 6.358 11.989 11.311 20.308 10.666 4.714-.361 13.42-2.888 18.761-15.744 5.617-13.521 12.701-27.713-.845-45.407-20.03-26.168-16.203-109.646-13.441-142.488h11.565c9.53 44.19 23.184 95.506 23.642 127.952.188 13.313 15.902 20.224 25.839 11.379 9.893-8.804 20.771-15.426 32.331-19.682 4.146-1.526 6.27-6.125 4.744-10.271s-6.124-6.269-10.271-4.744c-13.141 4.838-25.468 12.255-36.663 22.059-.726-33.632-13.796-83.42-23.248-126.692h154.749c14.448 0 26.203 11.744 26.203 26.181zm89.698 120.347c-18.625 2.212-44.434 4.953-73.698 7.157 0-20.798 0-90.284 0-121.578 36.155-41.374 71.613-46.709 95.292-43.721 4.409.558 7.77 4.2 7.991 8.662l5.369 108.146c1.029 20.729-14.324 38.884-34.954 41.334z"/><circle cx="262.626" cy="307.972" r="8"/></g></svg>