<svg id="Capa_1" enable-background="new 0 0 512 512" height="512" viewBox="0 0 512 512" width="512" xmlns="http://www.w3.org/2000/svg"><g><path d="m323.43 412.403c-14.653-10.854-1.875-50.777-1.875-70.413l-76.953 22.508 48.432 88.604c3.56 6.513 10.39 10.563 17.812 10.563 13.389 0 23.111-12.735 19.582-25.65z" fill="#eab1b7"/><path d="m299.278 364.498c0 32.904 26.674 59.577 59.577 59.577h10.51c39.122 0 73.113-28.216 77.689-64.41-9.424 3.135-26.013-30.765-36.49-30.765z" fill="#e28086"/><path d="m173.789 364.498h157.718 85.565c26.241 0 49.996-10.648 67.179-27.859 12.636-12.657 12.661-33.148.014-45.794l-8.403-8.403 1.586 1.586c12.657 12.657 34.475 3.86 34.551-14.039.001-.14.001-.28.001-.419 0-60.672-24.423-115.639-63.973-155.607-7.921-8.004-20.813-8.112-28.776-.15l-2.758 2.758c9.029-9.029 7.545-24.064-3.076-31.152l.001-.001c-35.104-23.424-77.283-37.082-122.653-37.082h-14.528c-11.177 0-20.237 9.061-20.237 20.237 0-11.177-9.061-20.237-20.237-20.237h-45.199c-33.674 0-65.909 8.524-94.241 23.867-11.844 6.414-14.06 22.504-4.538 32.03l-5.033-5.033c-7.586-7.586-19.769-7.928-27.785-.799-23.456 20.859-41.925 47.499-53.643 78.051-20.124 53.36 19.309 110.375 76.337 110.375h19.237c1.435 0 2.568 1.21 2.475 2.643-.099 1.525-.149 3.064-.149 4.614-.001 38.938 31.606 70.495 70.565 70.414z" fill="#eab1b7"/><path d="m448.026 113.962c-6.887-6.96-17.532-7.949-25.427-2.855 30.164 37.811 48.194 85.729 48.194 137.859v.228c-.123 52.322-42.577 94.7-94.928 94.7h-243.283c-3.151.007-6.254-.194-9.296-.589 12.817 13.109 30.712 21.234 50.504 21.192h243.283c26.242 0 49.996-10.648 67.179-27.859 12.636-12.656 12.66-33.148.014-45.794l-6.815-6.815c12.658 12.653 34.472 3.857 34.549-14.042 0-.138 0-.278 0-.417 0-60.672-24.423-115.64-63.974-155.608z" fill="#e4989d"/><path d="m62.597 131.093c-2.97 3.316-5.816 6.756-8.531 10.309-3.889 5.088-3.408 12.273 1.12 16.801l.147.147c5.477 5.477 14.503 4.841 19.206-1.313 2.3-3.009 4.708-5.923 7.218-8.729 4.449-4.975 4.396-12.506-.193-17.353l-.139-.147c-5.148-5.437-13.834-5.293-18.828.285z" fill="#f6d3d5"/><path d="m56.924 222.35c-4.662-6.741-6.445-14.354-4.817-22.594.837-4.238-.409-8.618-3.463-11.672-7.177-7.177-19.407-3.513-21.546 6.409-3.068 14.23-1.306 28.121 8.644 42.508 7.339 10.611 17.639 18.083 29.469 21.666 8.191 2.481 16.45-3.688 16.45-12.246v-.2c0-5.56-3.566-10.579-8.894-12.169-6.367-1.902-11.828-5.897-15.843-11.702z" fill="#f6d3d5"/><g fill="#e4989d"><path d="m323.717 215.942h-19.341v-73.341c0-4.268-3.459-7.726-7.726-7.726s-7.726 3.459-7.726 7.726v73.341h-77.419v-73.341c0-4.268-3.459-7.726-7.726-7.726s-7.726 3.459-7.726 7.726v73.341h-30.204c-12.437 0-24.205 2.921-34.653 8.112l-37.601-37.602c-3.017-3.015-7.909-3.017-10.927 0-3.018 3.018-3.018 7.909 0 10.928l35.126 35.126c-16.509 12.913-27.715 32.308-29.751 54.321h12.856c1.285 0 2.327.971 2.464 2.203 2.582-32.212 29.621-57.635 62.487-57.635h157.869c4.267 0 7.726-3.459 7.726-7.726-.002-4.269-3.461-7.727-7.728-7.727z"/><path d="m327.448 280.761c25.275 0 49.036-9.843 66.907-27.714l23.915-23.914c3.018-3.017 3.018-7.909 0-10.927-3.017-3.017-7.909-3.018-10.927-.001l-23.916 23.915c-14.952 14.953-34.833 23.188-55.98 23.188h-131.796c-16.308 0-31.639 6.35-43.172 17.881l-2.625 2.626c-3.017 3.018-3.016 7.91.002 10.928 1.509 1.508 3.485 2.262 5.462 2.262 1.978 0 3.956-.755 5.464-2.264l2.624-2.625c8.612-8.613 20.063-13.355 32.244-13.355z"/><path d="m393.444 343.018c-20.437-20.436-47.608-31.69-76.509-31.69h-96.095c-4.267 0-7.726 3.459-7.726 7.726s3.459 7.726 7.726 7.726h96.096c24.773 0 48.064 9.647 65.582 27.165l10.552 10.552h21.854z"/><path d="m427.193 262.623c-3.018 3.017-3.018 7.909 0 10.927 1.509 1.508 3.486 2.263 5.463 2.263s3.955-.755 5.463-2.264l13.923-13.923c17.472-17.472 20.491-45.262 7.178-66.077l-6.029-9.427c-2.299-3.596-7.077-4.646-10.672-2.346-3.595 2.299-4.645 7.077-2.346 10.672l6.029 9.427c9.434 14.751 7.295 34.443-5.087 46.825z"/><path d="m86.751 99.199c-6.705-6.704-17-7.751-24.836-2.981l38.206 38.207c1.509 1.508 3.486 2.263 5.463 2.263s3.955-.755 5.463-2.263c3.018-3.018 3.018-7.909 0-10.928z"/><path d="m248.274 144.364c4.267 0 7.726-3.459 7.726-7.726v-68.066c0-9.528-6.585-17.519-15.453-19.668v87.734c0 4.267 3.46 7.726 7.727 7.726z"/><path d="m419.49 91.742c-1.48-2.44-3.51-4.613-6.073-6.323l.001-.001c-13.955-9.311-29.028-17.08-44.975-23.06 10.274 6.559 19.97 13.944 28.995 22.06 8.39 7.545 8.84 20.536.861 28.515l-28.166 28.165c-3.018 3.018-3.018 7.909 0 10.928 1.509 1.508 3.486 2.263 5.463 2.263s3.955-.755 5.463-2.263l35.432-35.453c6.836-6.837 7.668-17.162 2.999-24.831z"/></g></g></svg>